PathFileType	4	(X/Y/Z)	Patient4_TMGait_0pt3_01_right_23.trc.trc
DataRate	CameraRate	NumFrames	NumMarkers	Units	OrigDataRate	OrigDataStartFrame	OrigNumFrames
55.118110236220	55.118110236220	6	33	mm	55.118110236220	71	       141
Frame#	Time	Sacral			L.Shoulder			Chest			R.Shoulder			Neck			R.ASIS			L.ASIS			R.Thigh.Superior			R.Thigh.Lateral			R.Thigh.Inferior			R.Patella			L.Thigh.Superior			L.Thigh.Lateral			L.Thigh.Inferior			L.Patella			L.Shank.Superior			L.Shank.Lateral			L.Shank.Inferior			R.Shank.Superior			R.Shank.Lateral			R.Shank.Inferior			R.Heel			R.Midfoot.Superior			R.Midfoot.Lateral			R.Toe			L.Heel			L.Midfoot.Lateral			L.Midfoot.Superior			L.Toe			L.Elbow			L.Wrist			R.Elbow			R.Wrist			
		X1	Y1	Z1	X2	Y2	Z2	X3	Y3	Z3	X4	Y4	Z4	X5	Y5	Z5	X6	Y6	Z6	X7	Y7	Z7	X8	Y8	Z8	X9	Y9	Z9	X10	Y10	Z10	X11	Y11	Z11	X12	Y12	Z12	X13	Y13	Z13	X14	Y14	Z14	X15	Y15	Z15	X16	Y16	Z16	X17	Y17	Z17	X18	Y18	Z18	X19	Y19	Z19	X20	Y20	Z20	X21	Y21	Z21	X22	Y22	Z22	X23	Y23	Z23	X24	Y24	Z24	X25	Y25	Z25	X26	Y26	Z26	X27	Y27	Z27	X28	Y28	Z28	X29	Y29	Z29	X30	Y30	Z30	X31	Y31	Z31	X32	Y32	Z32	X33	Y33	Z33	

71	43.510000000000	773.326398033620	1005.781218582899	596.168000854585	930.365990893979	1416.823665557674	370.167675102619	1059.387522666732	1351.026718540399	512.801398203963	1012.625844661017	1442.057769065538	691.040098017605	949.024189624025	1485.585957186532	521.730674043628	1010.802717592035	932.406775548162	683.467775368180	964.320598031664	951.194659500034	412.682949227631	1008.126598738379	719.870697200817	650.073125802016	908.451722510282	622.039617970377	712.714217957646	965.973334328732	560.719104888246	627.313973987318	946.740774300383	474.368436395479	629.383941401490	1038.051337532282	760.957629862300	438.778427512790	977.874834343378	637.427728209463	362.515946375587	1080.104712792903	574.894955715047	421.690786862612	1100.143060009971	506.492828809306	417.534939065295	1077.237085359881	434.897209481453	404.102423242682	998.564677290522	314.215855882255	348.870738556315	1074.975125084597	205.163274955021	400.621848326009	905.104450512092	391.206663571140	634.901839514811	820.247279328444	297.298331657518	695.779488368488	843.511534340724	200.226070915882	627.076278523109	686.920963913349	45.835148252972	592.643518334759	859.195635286638	96.554984608257	633.123717273400	768.146200331753	37.623626991871	668.782871663438	976.481825861823	40.099457238591	664.388611580152	971.549391921893	37.564370417270	432.876581052561	1045.360406028831	38.516920282763	352.405283512788	1124.285208583338	105.552182484759	377.436600910366	1253.851517487302	62.878015644946	348.775010920977	751.264904051649	1110.849951474185	304.559258650909	687.914006522882	859.246391539191	336.918965807261	1210.080155142900	1210.189529779613	846.074510702514	1449.238969482813	1295.551645549433	809.100094642411	
72	43.528142857143	774.025076833913	1005.125773552986	593.609329857263	931.205223695443	1415.415138604119	366.183734846343	1060.687824151650	1349.379005105339	508.347586210091	1014.864967914626	1440.659168793237	686.660352010096	950.562762077025	1484.305768482229	517.658743007296	1011.945423401405	931.276793091880	680.217078957453	964.203722881523	949.255960522494	409.575159953059	1007.667227288898	718.541624979603	647.693560426157	907.043487378712	621.652685173488	710.851923454725	963.606210119464	559.565032848149	625.506181971189	943.385663612358	473.634335148971	627.784055988201	1038.211409995437	759.544569008727	436.040312057144	977.044520235797	635.758790052306	360.974755751811	1079.947507319846	573.632856882124	419.261758482138	1098.995001474848	504.543651806361	415.682866604799	1076.038330067658	432.708504474625	402.549540261553	996.380321575790	312.497171266750	347.885080448972	1071.562731307780	203.098036098987	400.163664742408	901.425302341236	390.674066462308	633.700491247892	816.119183850879	297.449280842451	695.184489945512	838.723524627809	200.054868411403	626.718087252245	681.431924662012	45.990496926529	592.740350517326	853.827449870014	96.588403822574	633.125465427170	762.683982068103	37.671025979457	668.855753123182	971.056013522581	40.056704450814	664.388578990271	966.119797466589	37.360409689961	433.263634728442	1039.644878488707	37.499463224693	352.432729674005	1119.589420347935	103.156589986107	377.433701705789	1248.618776250231	58.710838861119	348.202805313432	752.362090575790	1108.931310772889	303.257409101551	688.511696733472	857.407011873122	337.420268163697	1214.590817005243	1210.514348080152	839.960075120351	1452.626417642330	1298.663869448633	801.618258088874	
73	43.546285714286	774.751412605233	1004.545060623674	590.876141902807	932.134071741001	1414.127285916042	362.136978149385	1062.057591987591	1347.817489402518	503.828185896113	1017.151588620533	1439.265471597567	682.255582791388	952.187046569025	1483.109230325586	513.579909161703	1013.130699393676	930.209384133495	676.708499563368	964.157202665624	947.529882955382	406.195550595774	1007.409166999529	717.298953930703	645.063988876850	906.012481336754	621.260743106739	708.766138092806	961.664744633644	558.461949088365	623.442647126131	940.569716012121	472.852775977510	626.007003701778	1038.835250410302	758.747498124097	433.395575185603	977.229057917450	634.531803827892	359.376972541657	1080.699721806163	572.833003676364	416.936275327770	1098.843687158169	502.969449518225	413.968040817090	1075.685269579160	430.794647934100	401.164773375433	994.932197435908	311.260935346828	346.739691033298	1068.290988162349	201.293815085810	399.789540175728	898.143357789378	390.122197790327	632.366410899850	812.289913737417	297.705056392670	694.501369612662	834.104504255541	199.938974839656	626.330525344013	675.983789563596	46.344332871823	592.867429615006	848.522328145654	96.655474728978	633.138688765711	757.261140301084	37.816353408211	668.939442292986	965.662777806879	39.972436252732	664.395997823000	960.378098102242	37.367388122386	433.467808446362	1033.726106543093	36.759566124725	352.400115123759	1114.640131884007	101.103170477522	377.508740173953	1243.188156415426	54.932175764120	347.839538747256	754.440400379035	1106.560303861472	301.413708857470	690.888596125851	854.934795101118	336.970185461679	1218.406490607977	1210.056808478603	833.923500799308	1455.779120212296	1299.982607568368	794.543797868153	
74	43.564428571429	775.542387675531	1004.112108115536	587.940964052488	933.130810883813	1413.062552976668	358.069513617058	1063.484151555555	1346.445590739372	499.275545441553	1019.469012481315	1437.976326421847	677.859509663878	953.870547059299	1482.079927351268	509.531715714130	1014.338920535312	929.267824913092	672.962295486776	964.250910533455	946.110676361304	402.554456478197	1007.248964988904	716.194791835668	642.216244781947	905.217314077144	620.949252897770	706.491081168150	960.020620220356	557.474515358528	621.188161689303	938.150167769549	472.102569903401	624.116687548155	1039.895871411370	758.537822287448	430.850879207124	978.318313253177	633.732913870919	357.704074720076	1082.183631795373	572.417821052079	414.751241521920	1099.531791578425	501.754228611923	412.430622976950	1076.034573856621	429.177564654858	399.974412159788	994.158772084363	310.477013704280	345.496387705651	1065.206179618941	199.788079630843	399.525937580215	895.152007838620	389.630239110489	630.953548364874	808.669701552381	298.122557851412	693.753964425653	829.620194700770	199.939361815755	625.945129001602	670.584995967718	46.948720979767	593.031678013324	843.293976071631	96.767339516725	633.177486878215	751.883133998384	38.085099697750	669.038233287964	960.299421224731	39.842071925986	664.412383443847	954.546745804273	37.527692166814	433.517622024789	1027.811464707675	36.297485916037	352.329308593350	1109.583373437664	99.474750112112	377.653328188279	1237.729955043450	51.723688792756	347.653457678777	757.293864575759	1103.981277532155	298.993667287942	694.918351959877	852.051287708999	335.496742321833	1221.596858973709	1208.976079189564	827.999842673538	1458.823158945002	1299.586805339084	787.916663448275	
75	43.582571428571	776.431262454637	1003.873151704236	584.763460904891	934.192238035145	1412.294821312856	354.011002357538	1064.955543139502	1345.345538933362	494.729265520006	1021.774871443187	1436.871321233600	673.505481677868	955.581520817538	1481.281371954050	505.538250877341	1015.549651556728	928.500277868387	669.017698292154	964.560987937475	945.049685945864	398.685734957936	1007.104226596735	715.271256879137	639.204480324798	904.524634173543	620.795379869288	704.067913365742	958.563947611759	556.657672293398	618.821960875982	935.998069518589	471.454364392139	622.181805208780	1041.325189152017	758.798251470122	428.390918052002	980.099623989295	633.287976366971	355.946157110193	1084.147216589094	572.264864060490	412.737156179795	1100.817948777760	500.831774021618	411.094032785449	1076.860084133622	427.836117281409	398.979841162109	993.890813916714	310.068547990644	344.233106784455	1062.288526613917	198.576389022269	399.384657707365	892.354609384061	389.269718470346	629.516526021436	805.176403152865	298.752174089063	692.965499614241	825.243543728626	200.110570031168	625.592016082902	665.245034394478	47.852353950991	593.237858735708	838.156126623598	96.935213708857	633.255993839037	746.554521896197	38.501538900779	669.155998524736	954.962752864754	39.664255981444	664.438376557788	948.770829227559	37.787579334680	433.456691348572	1022.022599624976	36.084869878661	352.245392773106	1104.511742279365	98.284588982416	377.853759090951	1232.343010759746	49.142942489418	347.598038458332	760.719364342582	1101.424301229936	295.976080965041	700.438774917177	848.979260604655	332.960186715818	1224.238923570987	1207.446604547276	822.205232903003	1461.873315472341	1297.574193907869	781.783620054159	
76	43.600714285714	777.436257033521	1003.854839380939	581.301345344656	935.335792524668	1411.868043182043	349.977124870740	1066.463977904082	1344.574140687778	490.233187737144	1024.010858191220	1436.009518488145	669.223317419631	957.287915585030	1480.757275890720	501.607722958551	1016.740058356628	927.940619373695	664.928036436565	965.151171042921	944.360967128902	394.643418841849	1006.923133251551	714.560761203963	636.096279795670	903.828682893858	620.861474449712	701.539161438136	957.217741306036	556.053127445082	616.424832730046	934.017183430024	470.964010695657	620.266637950241	1043.016406894655	759.360001271615	425.978510163550	982.293835644260	633.094035906483	354.097061636779	1086.301799313685	572.241597098827	410.904753230462	1102.411682329677	500.114152419537	409.952186265232	1077.890124372712	426.725999741721	398.153505060673	993.891064920109	309.934883600224	343.019310809293	1059.471730759544	197.627776566527	399.357842620097	889.678629477186	389.098143645217	628.104262079462	801.747926851967	299.634926942485	692.156459818507	820.960040297935	200.496805125667	625.296839076099	659.974672054793	49.098734898937	593.488665398083	833.122746848326	97.169954703277	633.387467701775	741.279525257699	39.088155717050	669.296315352222	949.649498414917	39.440966573565	664.473432635580	943.127292383462	38.102458017376	433.332702787824	1016.410524631760	36.074785250271	352.171282408489	1099.472920671717	97.493082404046	378.092145161528	1227.067720941885	47.154827340710	347.623577535156	764.537564831052	1099.085555334915	292.352276630194	707.260447714630	845.926935993535	329.350538723074	1226.406350943015	1205.640063912416	816.540124053516	1465.016544139197	1294.048353628984	776.202448715441	
